<mxfile host="Electron" agent="Mozilla/5.0 (X11; Linux x86_64) AppleWebKit/537.36 (KHTML, like Gecko) draw.io/27.0.9 Chrome/134.0.6998.205 Electron/35.4.0 Safari/537.36" version="27.0.9">
  <diagram name="Page-1" id="iz8f-JQfvFXkTsWmJ790">
    <mxGraphModel dx="810" dy="677" grid="1" gridSize="10" guides="1" tooltips="1" connect="1" arrows="1" fold="1" page="1" pageScale="1" pageWidth="850" pageHeight="1100" math="0" shadow="0">
      <root>
        <mxCell id="0" />
        <mxCell id="1" parent="0" />
        <mxCell id="G5Al2I0ro_0D6ZhAxxe_-4" value="AI-Cockpit" style="shape=umlLifeline;perimeter=lifelinePerimeter;whiteSpace=wrap;html=1;container=1;dropTarget=0;collapsible=0;recursiveResize=0;outlineConnect=0;portConstraint=eastwest;newEdgeStyle={&quot;edgeStyle&quot;:&quot;elbowEdgeStyle&quot;,&quot;elbow&quot;:&quot;vertical&quot;,&quot;curved&quot;:0,&quot;rounded&quot;:0};" vertex="1" parent="1">
          <mxGeometry x="400" y="180" width="100" height="430" as="geometry" />
        </mxCell>
        <mxCell id="G5Al2I0ro_0D6ZhAxxe_-5" value="" style="html=1;points=[[0,0,0,0,5],[0,1,0,0,-5],[1,0,0,0,5],[1,1,0,0,-5]];perimeter=orthogonalPerimeter;outlineConnect=0;targetShapes=umlLifeline;portConstraint=eastwest;newEdgeStyle={&quot;curved&quot;:0,&quot;rounded&quot;:0};" vertex="1" parent="G5Al2I0ro_0D6ZhAxxe_-4">
          <mxGeometry x="45" y="90" width="10" height="120" as="geometry" />
        </mxCell>
        <mxCell id="G5Al2I0ro_0D6ZhAxxe_-6" value="ReportGenerator&lt;br&gt;(sbom-generator)" style="shape=umlLifeline;perimeter=lifelinePerimeter;whiteSpace=wrap;html=1;container=1;dropTarget=0;collapsible=0;recursiveResize=0;outlineConnect=0;portConstraint=eastwest;newEdgeStyle={&quot;edgeStyle&quot;:&quot;elbowEdgeStyle&quot;,&quot;elbow&quot;:&quot;vertical&quot;,&quot;curved&quot;:0,&quot;rounded&quot;:0};" vertex="1" parent="1">
          <mxGeometry x="280" y="180" width="100" height="430" as="geometry" />
        </mxCell>
        <mxCell id="G5Al2I0ro_0D6ZhAxxe_-7" value="" style="html=1;points=[[0,0,0,0,5],[0,1,0,0,-5],[1,0,0,0,5],[1,1,0,0,-5]];perimeter=orthogonalPerimeter;outlineConnect=0;targetShapes=umlLifeline;portConstraint=eastwest;newEdgeStyle={&quot;curved&quot;:0,&quot;rounded&quot;:0};" vertex="1" parent="G5Al2I0ro_0D6ZhAxxe_-6">
          <mxGeometry x="45" y="220" width="10" height="60" as="geometry" />
        </mxCell>
        <mxCell id="G5Al2I0ro_0D6ZhAxxe_-8" value="T-API" style="shape=umlLifeline;perimeter=lifelinePerimeter;whiteSpace=wrap;html=1;container=1;dropTarget=0;collapsible=0;recursiveResize=0;outlineConnect=0;portConstraint=eastwest;newEdgeStyle={&quot;edgeStyle&quot;:&quot;elbowEdgeStyle&quot;,&quot;elbow&quot;:&quot;vertical&quot;,&quot;curved&quot;:0,&quot;rounded&quot;:0};" vertex="1" parent="1">
          <mxGeometry x="160" y="180" width="100" height="430" as="geometry" />
        </mxCell>
        <mxCell id="G5Al2I0ro_0D6ZhAxxe_-9" value="" style="html=1;points=[[0,0,0,0,5],[0,1,0,0,-5],[1,0,0,0,5],[1,1,0,0,-5]];perimeter=orthogonalPerimeter;outlineConnect=0;targetShapes=umlLifeline;portConstraint=eastwest;newEdgeStyle={&quot;curved&quot;:0,&quot;rounded&quot;:0};fillStyle=solid;fillColor=default;" vertex="1" parent="G5Al2I0ro_0D6ZhAxxe_-8">
          <mxGeometry x="45" y="90" width="10" height="320" as="geometry" />
        </mxCell>
        <mxCell id="G5Al2I0ro_0D6ZhAxxe_-11" value="GET module/findByName" style="html=1;verticalAlign=bottom;endArrow=block;curved=0;rounded=0;" edge="1" parent="1">
          <mxGeometry width="80" relative="1" as="geometry">
            <mxPoint x="215" y="280" as="sourcePoint" />
            <mxPoint x="444.5" y="280" as="targetPoint" />
          </mxGeometry>
        </mxCell>
        <mxCell id="G5Al2I0ro_0D6ZhAxxe_-12" value="404 NOT FOUND" style="html=1;verticalAlign=bottom;endArrow=none;curved=0;rounded=0;startFill=0;startArrow=open;dashed=1;" edge="1" parent="1">
          <mxGeometry width="80" relative="1" as="geometry">
            <mxPoint x="215.25" y="300" as="sourcePoint" />
            <mxPoint x="444.75" y="300" as="targetPoint" />
          </mxGeometry>
        </mxCell>
        <mxCell id="G5Al2I0ro_0D6ZhAxxe_-14" value="validate" style="html=1;align=left;spacingLeft=2;endArrow=block;rounded=0;edgeStyle=orthogonalEdgeStyle;curved=0;rounded=0;" edge="1" parent="1">
          <mxGeometry relative="1" as="geometry">
            <mxPoint x="215" y="320" as="sourcePoint" />
            <Array as="points">
              <mxPoint x="240" y="350" />
            </Array>
            <mxPoint x="215" y="350" as="targetPoint" />
          </mxGeometry>
        </mxCell>
        <mxCell id="G5Al2I0ro_0D6ZhAxxe_-16" value="generateReport" style="html=1;verticalAlign=bottom;endArrow=none;curved=0;rounded=0;entryX=1;entryY=0;entryDx=0;entryDy=5;startFill=1;startArrow=block;" edge="1" parent="1">
          <mxGeometry relative="1" as="geometry">
            <mxPoint x="325" y="418" as="sourcePoint" />
            <mxPoint x="215" y="418" as="targetPoint" />
          </mxGeometry>
        </mxCell>
        <mxCell id="G5Al2I0ro_0D6ZhAxxe_-17" value="200 OK" style="html=1;verticalAlign=bottom;endArrow=none;dashed=1;endSize=8;curved=0;rounded=0;exitX=1;exitY=1;exitDx=0;exitDy=-5;startFill=0;startArrow=open;" edge="1" parent="1">
          <mxGeometry relative="1" as="geometry">
            <mxPoint x="325" y="436" as="targetPoint" />
            <mxPoint x="215" y="436" as="sourcePoint" />
          </mxGeometry>
        </mxCell>
        <mxCell id="G5Al2I0ro_0D6ZhAxxe_-20" value="MinIO" style="shape=umlLifeline;perimeter=lifelinePerimeter;whiteSpace=wrap;html=1;container=1;dropTarget=0;collapsible=0;recursiveResize=0;outlineConnect=0;portConstraint=eastwest;newEdgeStyle={&quot;edgeStyle&quot;:&quot;elbowEdgeStyle&quot;,&quot;elbow&quot;:&quot;vertical&quot;,&quot;curved&quot;:0,&quot;rounded&quot;:0};" vertex="1" parent="1">
          <mxGeometry x="520" y="180" width="100" height="430" as="geometry" />
        </mxCell>
        <mxCell id="G5Al2I0ro_0D6ZhAxxe_-24" value="" style="html=1;points=[[0,0,0,0,5],[0,1,0,0,-5],[1,0,0,0,5],[1,1,0,0,-5]];perimeter=orthogonalPerimeter;outlineConnect=0;targetShapes=umlLifeline;portConstraint=eastwest;newEdgeStyle={&quot;curved&quot;:0,&quot;rounded&quot;:0};" vertex="1" parent="G5Al2I0ro_0D6ZhAxxe_-20">
          <mxGeometry x="45" y="270" width="10" height="80" as="geometry" />
        </mxCell>
        <mxCell id="G5Al2I0ro_0D6ZhAxxe_-22" value="POST module/" style="html=1;verticalAlign=bottom;endArrow=block;curved=0;rounded=0;" edge="1" parent="1">
          <mxGeometry width="80" relative="1" as="geometry">
            <mxPoint x="215.13" y="370" as="sourcePoint" />
            <mxPoint x="444.63" y="370" as="targetPoint" />
          </mxGeometry>
        </mxCell>
        <mxCell id="G5Al2I0ro_0D6ZhAxxe_-23" value="200 OK" style="html=1;verticalAlign=bottom;endArrow=none;curved=0;rounded=0;startFill=0;startArrow=open;dashed=1;" edge="1" parent="1">
          <mxGeometry width="80" relative="1" as="geometry">
            <mxPoint x="215.38" y="390" as="sourcePoint" />
            <mxPoint x="444.88" y="390" as="targetPoint" />
          </mxGeometry>
        </mxCell>
        <mxCell id="G5Al2I0ro_0D6ZhAxxe_-25" value="uploadReport" style="html=1;verticalAlign=bottom;endArrow=block;curved=0;rounded=0;entryX=0;entryY=0;entryDx=0;entryDy=5;" edge="1" parent="1">
          <mxGeometry relative="1" as="geometry">
            <mxPoint x="215" y="478" as="sourcePoint" />
            <mxPoint x="565" y="478" as="targetPoint" />
          </mxGeometry>
        </mxCell>
        <mxCell id="G5Al2I0ro_0D6ZhAxxe_-26" value="200 OK" style="html=1;verticalAlign=bottom;endArrow=open;dashed=1;endSize=8;curved=0;rounded=0;exitX=0;exitY=1;exitDx=0;exitDy=-5;" edge="1" parent="1">
          <mxGeometry relative="1" as="geometry">
            <mxPoint x="215" y="495" as="targetPoint" />
            <mxPoint x="565" y="495" as="sourcePoint" />
          </mxGeometry>
        </mxCell>
        <mxCell id="G5Al2I0ro_0D6ZhAxxe_-27" value="Register new Module" style="text;html=1;align=center;verticalAlign=middle;whiteSpace=wrap;rounded=0;fontSize=26;" vertex="1" parent="1">
          <mxGeometry x="160" y="130" width="460" height="30" as="geometry" />
        </mxCell>
      </root>
    </mxGraphModel>
  </diagram>
</mxfile>
